<?xml version="1.0" encoding="UTF-8" standalone="no"?>
<svg
   xmlns:dc="http://purl.org/dc/elements/1.1/"
   xmlns:cc="http://creativecommons.org/ns#"
   xmlns:rdf="http://www.w3.org/1999/02/22-rdf-syntax-ns#"
   xmlns:svg="http://www.w3.org/2000/svg"
   xmlns="http://www.w3.org/2000/svg"
   xmlns:sodipodi="http://sodipodi.sourceforge.net/DTD/sodipodi-0.dtd"
   xmlns:inkscape="http://www.inkscape.org/namespaces/inkscape"
   viewBox="0 0 48 48"
   id="svg2"
   version="1.1"
   inkscape:version="0.91 r13725"
   sodipodi:docname="postman.svg">
  <metadata
     id="metadata63">
    <rdf:RDF>
      <cc:Work
         rdf:about="">
        <dc:format>image/svg+xml</dc:format>
        <dc:type
           rdf:resource="http://purl.org/dc/dcmitype/StillImage" />
        <dc:title />
      </cc:Work>
    </rdf:RDF>
  </metadata>
  <sodipodi:namedview
     pagecolor="#ffffff"
     bordercolor="#666666"
     borderopacity="1"
     objecttolerance="10"
     gridtolerance="10"
     guidetolerance="10"
     inkscape:pageopacity="0"
     inkscape:pageshadow="2"
     inkscape:window-width="1920"
     inkscape:window-height="1056"
     id="namedview61"
     showgrid="false"
     inkscape:zoom="45.254834"
     inkscape:cx="9.2905575"
     inkscape:cy="1.4731124"
     inkscape:window-x="0"
     inkscape:window-y="24"
     inkscape:window-maximized="1"
     inkscape:current-layer="svg2" />
  <defs
     id="defs4">
    <linearGradient
       id="linearGradient3764"
       x1="1"
       x2="47"
       gradientUnits="userSpaceOnUse"
       gradientTransform="matrix(0,-1,1,0,-1.5e-6,47.999998)">
      <stop
         style="stop-color:#e5e5e3;stop-opacity:1"
         id="stop7" />
      <stop
         offset="1"
         style="stop-color:#eeeeed;stop-opacity:1"
         id="stop9" />
    </linearGradient>
    <clipPath
       id="clipPath-432737416">
      <g
         transform="translate(0,-1004.3622)"
         id="g12">
        <path
           d="m -24 13 c 0 1.105 -0.672 2 -1.5 2 -0.828 0 -1.5 -0.895 -1.5 -2 0 -1.105 0.672 -2 1.5 -2 0.828 0 1.5 0.895 1.5 2 z"
           transform="matrix(15.333333,0,0,11.5,414.99999,878.8622)"
           style="fill:#1890d0"
           id="path14" />
      </g>
    </clipPath>
    <clipPath
       id="clipPath-440877745">
      <g
         transform="translate(0,-1004.3622)"
         id="g17">
        <path
           d="m -24 13 c 0 1.105 -0.672 2 -1.5 2 -0.828 0 -1.5 -0.895 -1.5 -2 0 -1.105 0.672 -2 1.5 -2 0.828 0 1.5 0.895 1.5 2 z"
           transform="matrix(15.333333,0,0,11.5,414.99999,878.8622)"
           style="fill:#1890d0"
           id="path19" />
      </g>
    </clipPath>
    <filter
       style="color-interpolation-filters:sRGB;"
       inkscape:label="Invert"
       id="filter3478">
      <feColorMatrix
         values="1 0 0 0 0 0 1 0 0 0 0 0 1 0 0 -0.21 -0.72 -0.07 2 0 "
         result="color2"
         id="feColorMatrix3480" />
    </filter>
  </defs>
  <g
     id="g21">
    <path
       d="m 36.31 5 c 5.859 4.062 9.688 10.831 9.688 18.5 c 0 12.426 -10.07 22.5 -22.5 22.5 c -7.669 0 -14.438 -3.828 -18.5 -9.688 c 1.037 1.822 2.306 3.499 3.781 4.969 c 4.085 3.712 9.514 5.969 15.469 5.969 c 12.703 0 23 -10.298 23 -23 c 0 -5.954 -2.256 -11.384 -5.969 -15.469 c -1.469 -1.475 -3.147 -2.744 -4.969 -3.781 z m 4.969 3.781 c 3.854 4.113 6.219 9.637 6.219 15.719 c 0 12.703 -10.297 23 -23 23 c -6.081 0 -11.606 -2.364 -15.719 -6.219 c 4.16 4.144 9.883 6.719 16.219 6.719 c 12.703 0 23 -10.298 23 -23 c 0 -6.335 -2.575 -12.06 -6.719 -16.219 z"
       style="opacity:0.05"
       id="path23" />
    <path
       d="m 41.28 8.781 c 3.712 4.085 5.969 9.514 5.969 15.469 c 0 12.703 -10.297 23 -23 23 c -5.954 0 -11.384 -2.256 -15.469 -5.969 c 4.113 3.854 9.637 6.219 15.719 6.219 c 12.703 0 23 -10.298 23 -23 c 0 -6.081 -2.364 -11.606 -6.219 -15.719 z"
       style="opacity:0.1"
       id="path25" />
    <path
       d="m 31.25 2.375 c 8.615 3.154 14.75 11.417 14.75 21.13 c 0 12.426 -10.07 22.5 -22.5 22.5 c -9.708 0 -17.971 -6.135 -21.12 -14.75 a 23 23 0 0 0 44.875 -7 a 23 23 0 0 0 -16 -21.875 z"
       style="opacity:0.2"
       id="path27" />
  </g>
  <g
     id="g29"
     style="fill:#e05218;fill-opacity:1;filter:url(#filter3478)">
    <path
       d="m 24 1 c 12.703 0 23 10.297 23 23 c 0 12.703 -10.297 23 -23 23 -12.703 0 -23 -10.297 -23 -23 0 -12.703 10.297 -23 23 -23 z"
       style="fill:#e05218;fill-opacity:1"
       id="path31" />
  </g>
  <g
     id="g57">
    <path
       d="m 40.03 7.531 c 3.712 4.084 5.969 9.514 5.969 15.469 0 12.703 -10.297 23 -23 23 c -5.954 0 -11.384 -2.256 -15.469 -5.969 4.178 4.291 10.01 6.969 16.469 6.969 c 12.703 0 23 -10.298 23 -23 0 -6.462 -2.677 -12.291 -6.969 -16.469 z"
       style="opacity:0.1"
       id="path59" />
  </g>
  <g
     id="g4"
     transform="matrix(0.16925629,0,0,0.16852573,2.0340285,-1.7983318)"
     style="fill:#000000;fill-opacity:1">
    <path
       d="m 173.33729,105.36418 c 7.99099,8.49398 0.10464,28.577 0.10464,28.577 0,0 -7.79456,28.39343 -52.42146,65.21291 l -8.3306,-8.17639 56.65101,-57.89931 1.0941,-1.47778 c 1.50715,-2.45622 2.75545,-26.40165 2.90231,-26.23643"
       id="path10"
       inkscape:connector-curvature="0"
       style="fill:#000000;fill-opacity:1;fill-rule:nonzero" />
    <path
       d="m 173.33729,105.36418 c 7.99099,8.49398 0.10464,28.577 0.10464,28.577 0,0 -7.79456,28.39343 -52.42146,65.21291 l -8.3306,-8.17639 56.65101,-57.89931 1.0941,-1.47778 c 1.50715,-2.45622 2.75545,-26.40165 2.90231,-26.23643 l 0,0 z"
       id="path12"
       inkscape:connector-curvature="0"
       style="fill:#ffffff;fill-opacity:1;stroke:#ffffff;stroke-width:1.91799998;stroke-linecap:round;stroke-linejoin:round" />
    <path
       d="m 100.45465,178.94073 72.76332,-73.78582 c 3.69351,4.38558 4.47921,9.11078 3.40714,15.84246 -0.72145,4.66278 -8.77485,13.98101 -8.77485,13.98101 l -55.16039,55.99932"
       id="path14-3"
       inkscape:connector-curvature="0"
       style="fill:#000000;fill-opacity:1;fill-rule:nonzero" />
    <path
       d="m 100.45465,178.94073 72.76332,-73.78582 c 3.69351,4.38558 4.47921,9.11078 3.40714,15.84246 -0.72145,4.66278 -8.77485,13.98101 -8.77485,13.98101 l -55.16039,55.99932"
       id="path16"
       inkscape:connector-curvature="0"
       style="fill:#ffffff;fill-opacity:1;stroke:#ffffff;stroke-width:1.20099998;stroke-linecap:round;stroke-linejoin:round" />
    <path
       d="m 173.33729,105.41558 -72.88264,73.52699 0.14686,-0.14319 -0.0275,0.011 -18.082065,-17.81772 c 37.707995,-46.90503 62.088485,-55.65051 62.088485,-55.65051 0,0 15.87183,-6.195631 27.19468,-1.38782 0.87015,0.46628 1.24831,0.7343 1.56039,1.46309"
       id="path18"
       inkscape:connector-curvature="0"
       style="fill:#000000;fill-opacity:1;fill-rule:nonzero" />
    <path
       d="m 173.33729,105.41558 -72.88264,73.52699 0.14686,-0.14319 -0.0275,0.011 -18.082065,-17.81772 c 37.707995,-46.90503 62.088485,-55.65051 62.088485,-55.65051 0,0 15.87183,-6.195631 27.19468,-1.38782 0.87015,0.46628 1.24831,0.7343 1.56039,1.46309 l 0.002,-0.002 z"
       id="path20"
       inkscape:connector-curvature="0"
       style="fill:#ffffff;fill-opacity:1;stroke:#ffffff;stroke-width:1.91799998;stroke-linecap:round;stroke-linejoin:round" />
    <path
       d="m 121.02047,199.15226 c -17.38815,14.32062 -39.641021,36.81581 -69.888547,52.5059 l 9.58978,17.82194 -27.500949,-20.94774 67.232056,-69.59163"
       id="path22"
       inkscape:connector-curvature="0"
       style="fill:#ffffff;fill-opacity:1;fill-rule:nonzero"
       sodipodi:nodetypes="ccccc" />
    <path
       d="m 121.02047,199.15226 c -17.38815,14.32062 -39.641021,36.81581 -69.888547,52.5059 l 10.773084,18.55804 c -4.167988,-2.37523 -9.69139,-5.78321 -16.1357,-10.98785 -3.671126,-2.9526 -8.375553,-7.05735 -12.070175,-10.82711 l 66.753678,-69.46051"
       id="path24"
       inkscape:connector-curvature="0"
       style="fill:#ffffff;fill-opacity:1;stroke:#ffffff;stroke-width:1.91799998;stroke-linecap:round;stroke-linejoin:round"
       sodipodi:nodetypes="cccccc" />
    <polygon
       points="92.288273,160.99643 51.477885,169.83553 74.231911,143.08326 74.62476,143.40085 74.622924,143.40085 "
       id="polygon26"
       style="fill:#ffffff;fill-opacity:1;fill-rule:nonzero"
       transform="translate(8.3554563,17.832314)" />
    <polygon
       points="92.288273,160.99643 51.477885,169.83553 74.231911,143.08326 74.62476,143.40085 74.622924,143.40085 "
       id="polygon28"
       style="fill:#ffffff;fill-opacity:1;stroke:#ffffff;stroke-width:1.91799998;stroke-linecap:round;stroke-linejoin:round"
       transform="translate(8.3554563,17.832314)" />
    <path
       d="m 166.37983,84.078746 c -1.73294,15.640525 9.5275,29.720674 25.16802,31.464624 15.62768,1.73661 29.72067,-9.53301 31.46463,-25.168028 1.73845,-15.635017 -9.54035,-29.729846 -25.17354,-31.468294 -15.64236,-1.727434 -29.72434,9.527502 -31.45911,25.171698"
       id="path30"
       inkscape:connector-curvature="0"
       style="fill:#000000;fill-opacity:1;fill-rule:nonzero" />
    <path
       d="m 166.37983,84.078746 c -1.73294,15.640525 9.5275,29.720674 25.16802,31.464624 15.62768,1.73661 29.72067,-9.53301 31.46463,-25.168028 1.73845,-15.635017 -9.54035,-29.729846 -25.17354,-31.468294 -15.64236,-1.727434 -29.72434,9.527502 -31.45911,25.171698 l 0,0 z"
       id="path32"
       inkscape:connector-curvature="0"
       style="fill:#ffffff;fill-opacity:1;stroke:#ffffff;stroke-width:1.91799998;stroke-linecap:round;stroke-linejoin:round" />
    <path
       d="m 218.92061,102.97037 c 5.25573,-7.67891 4.98404,-19.166985 3.92849,-22.570451 -1.2942,-4.167135 -4.191,-10.944696 -9.24297,-14.467485 l -26.71372,24.606289 c 0,0 20.53094,22.058277 21.06515,22.131707 0.22212,0.0257 6.16993,-2.69854 10.96305,-9.70006"
       id="path34"
       inkscape:connector-curvature="0"
       style="fill:#000000;fill-opacity:1;fill-rule:nonzero" />
    <path
       d="m 218.92061,102.97037 c 5.25573,-7.67891 4.98404,-19.166985 3.92849,-22.570451 -1.2942,-4.167135 -4.191,-10.944696 -9.24297,-14.467485 l -26.71372,24.606289 c 0,0 20.53094,22.058277 21.06515,22.131707 0.22212,0.0257 6.16993,-2.69854 10.96305,-9.70006 l 0,0 z m -5.38974,-19.275294 c 0,0 2.5682,6.307611 -0.69024,11.21455 l 0.69024,-11.21455 z"
       id="path36"
       inkscape:connector-curvature="0"
       style="fill:#000000;fill-opacity:1;stroke:#ffffff;stroke-width:1.91799998;stroke-linecap:round;stroke-linejoin:round" />
    <polyline
       points="104.964073 173.156392 75.4820518 178.402944 93.2777376 159.913347"
       id="polyline38"
       style="fill:#ffffff;fill-opacity:1;fill-rule:nonzero"
       transform="translate(8.3554563,17.832314)" />
    <path
       d="m 113.31953,190.98871 -29.482022,5.24655 17.795682,-18.48959 m -17.970078,-16.384 37.480358,35.27378"
       id="path40"
       inkscape:connector-curvature="0"
       style="fill:#ffffff;fill-opacity:1;stroke:#ffffff;stroke-width:1.91799998;stroke-linecap:round;stroke-linejoin:round" />
  </g>
</svg>
