<svg id="logosandtypes_com" xmlns="http://www.w3.org/2000/svg" viewBox="0 0 150 150"><style>.st1{fill:#ed1c24}</style><path d="M0 0h150v150H0V0z" fill="none" id="Layer_3"/><g id="sptrans"><path class="st1" d="M95.1 55.2s27.7.3 32.2-.2 7.6-2.1 10.2-11H97.6l-2.5 11.2zM131 14.6c-12.1-.3-27.1.1-27.1.1l-2.4 11.1H142c-.2-3.9-1.7-10.9-11-11.2zM98.2 41.3h40.1c1.6-6.1 2.9-11.1 3.4-12.7h-40.8l-2.7 12.7zM17.4 43.3L15 55h39.7l-17 77.2h12.4l15.2-72.7S69 44 53.7 43.5c-12.7-.5-36.3-.2-36.3-.2z"/><path class="st1" d="M18.6 39.8h36.1s18.4.1 13.1 22.7L53 132.2h11.5s12.9-64.8 14.1-70.5 2.3-29-22-32.7c-20.8-.6-35.8-.2-35.8-.2l-2.2 11z"/><path class="st1" d="M22.1 25.9l2.2-11s10.3-.4 32.6 0 41.1 22 36.4 47c-4.7 25-14.1 70.3-14.1 70.3H67.3l14.8-70.8S86.7 27 55.7 26c-26.6-.8-25.6-.1-33.6-.1z"/></g></svg>