<?xml version="1.0" standalone="no"?>
<!DOCTYPE svg PUBLIC "-//W3C//DTD SVG 20010904//EN"
 "http://www.w3.org/TR/2001/REC-SVG-20010904/DTD/svg10.dtd">
<svg version="1.0" xmlns="http://www.w3.org/2000/svg"
 width="900.000000pt" height="591.000000pt" viewBox="0 0 900.000000 591.000000"
 preserveAspectRatio="xMidYMid meet">

<g transform="translate(0.000000,591.000000) scale(0.100000,-0.100000)"
fill="#000000" stroke="none">
<path d="M2437 5002 l-498 -498 783 -777 783 -777 -783 -778 -783 -777 498
-497 498 -497 780 774 c429 426 782 774 785 774 3 0 356 -348 785 -774 l780
-774 498 497 498 497 -783 777 -783 778 783 777 783 778 -498 497 -498 497
-780 -774 c-429 -426 -783 -773 -787 -772 -7 2 -466 455 -1173 1159 l-390 388
-498 -498z m2063 -1897 c6 0 395 381 864 847 l853 847 69 -70 69 -69 -855
-855 -855 -855 855 -855 855 -855 -69 -69 -69 -70 -853 847 c-469 466 -858
847 -864 847 -6 0 -395 -381 -864 -847 l-853 -847 -69 70 -69 69 855 855 855
855 -855 855 -855 855 69 69 69 70 853 -847 c469 -466 858 -847 864 -847z"/>
</g>
</svg>
